<svg xmlns="http://www.w3.org/2000/svg" width="512" height="512" viewBox="0 0 512 512"><path fill="#233F8A" d="M512 472c0 22.1-17.9 40-40 40H40c-22.1 0-40-17.9-40-40V40C0 17.9 17.9 0 40 0h432c22.1 0 40 17.9 40 40v432z"/><path fill-rule="evenodd" clip-rule="evenodd" fill="#E04C26" d="M196 211.5H89.3l-3.8-4.4H73.3l2.5-9.5h123.8l-3.6 13.9z"/><path fill-rule="evenodd" clip-rule="evenodd" fill="#FFF" d="M266 227.7v.1h-26c-1.5 4.9-2.7 9.9-3.9 14.8l26 .1-6.9 26.8v.1h-26c-1.4 5-2.6 9.9-3.9 14.9l26.1.1-6.9 27.1v.1h-58.1l3.4-13 51.6-.1 1.3-4.6-51.8-.1c1.3-5 2.6-10.2 3.9-15.3h24.9l1.2-4.6-24.9-.1 3.9-14.9h51.6c.5-1.5.8-3.2 1.2-4.8l-51.6-.1c1.2-5 2.6-9.9 3.8-14.8h24.9l1.2-4.5-24.9-.1L210 220h51.6c.5-1.6.8-3.2 1.2-4.8l-51.6-.1 3.8-14.8h58.1l-7.1 27.4zM328.1 245l3.1-5.6H374l1.2-4.5-41.3-.1 8.1-14.6 37.1-.1 1.2-4.8-35.4-.1 8.2-14.7h35.6L360 311.7h-27.4c1.2-4.3 2.2-8.7 3.4-13.1h22.8l1.2-4.5-22.7-.1 3.6-15.2 23-.1c.5-1.5.9-3.1 1.2-4.6l-22.7-.1 3.7-14.9H369c.4-1.6.8-3.2 1.3-4.8l-23.3-.1c.5-2.6 1.2-5.3 1.7-7.8l-33.1 65.2-10.3.1v-13h11.2c.8-1.5 1.5-3.1 2.3-4.6l-13.5-.1v-15.3h21.3c.8-1.5 1.5-3.1 2.3-4.6l-23.6-.1v-14.9h31.2c.8-1.6 1.7-3.2 2.4-4.8l-33.6-.1c0-2.8.1-5.6 0-8.3l-17.1 65.7h-27.6l3.4-13h20.9l1.2-4.5-21-.1 3.9-15.4h20.9c.4-1.5.7-3.1 1.2-4.6l-20.8-.1c1.2-5 2.6-9.9 3.9-15H295c.5-1.5.8-3.2 1.2-4.8l-20.8-.1 3.8-14.8H322l.1-4.5-41.8-.1 3.8-14.7H321V215l-35.5-.1 3.8-14.8h36.2l2.6 44.9zM466.4 215l-5.1 19.7-28.4.1c.6-2.3 1.2-4.5 1.8-6.8l-9.2-.1c-1.4 4.8-2.6 9.8-3.8 14.7l20.3.1 14 12.8-11 43.1-22.8 13.1H395l-17.5-13.1-.1-.1H439l1.2-4.5-61.7-.1 4-15.2 29.8-.1-1.4 5.7 9.1.1 1.5-5.8H444c.4-1.5.9-3 1.3-4.6l-22.5-.1c.2-1.5.8-2.9 1-4.4l-23-.1c-3.3-3.5-6.8-6.9-10.2-10.5l58.4-.1c.4-1.6.9-3.2 1.4-4.8l-61.6-.1c1.2-5 2.5-9.9 3.8-14.8l24.4-.1c.4-1.5.7-3.1 1.3-4.5l-24.6-.1c1.2-5 2.6-9.8 3.8-14.7l61.6-.1 1.2-4.9-61.6-.1 24.9-14.7h27.1l15.7 15.1z"/><path fill-rule="evenodd" clip-rule="evenodd" fill="#E04C26" d="M190.7 231.8h-83.9l-5.6-6.5H68.6l2.1-7.9h123.8l-3.8 14.4zM185.7 251.4h-61.9l-7.1-8.2H64.1l1.5-6.1h123.8l-3.7 14.3zM180.8 270.2H140l-8.4-9.8h-72l1.1-4.1h123.8l-3.7 13.9zM175.6 289.8h-18.7l-10-11.6H55.1l.8-3.5 78-.1h45.7l-4 15.2zM171.2 306.6l-8.7-10.2-112.1-.1.4-2.1 123.7.1-3.3 12.3zM169.2 314.3l-123.6.1.4-2h123.8l-.6 1.9z"/></svg>